HIERARCHY
ROOT Hips
{
	OFFSET -3.958830 18.904000 13.208200
	CHANNELS 6 Xposition Yposition Zposition Zrotation Yrotation Xrotation 
	JOINT LHipJoint
	{
		OFFSET 0.000000 0.000000 0.000000
		CHANNELS 3 Zrotation Yrotation Xrotation
		JOINT LeftUpLeg
		{
			OFFSET 1.800000 -1.400000 0.085000
			CHANNELS 3 Zrotation Yrotation Xrotation
			JOINT LeftLeg
			{
				OFFSET 2.215000 -6.000000 0.000000
				CHANNELS 3 Zrotation Yrotation Xrotation
				JOINT LeftFoot
				{
					OFFSET 2.500000 -6.900000 0.000000
					CHANNELS 3 Zrotation Yrotation Xrotation
					JOINT LeftToeBase
					{
						OFFSET 0.200000 -0.500000 1.950000
						CHANNELS 3 Zrotation Yrotation Xrotation
						End Site
						{
							OFFSET 0.000000 0.000000 0.000000
						}
					}
				}
			}
		}
	}
	JOINT RHipJoint
	{
		OFFSET 0.000000 0.000000 0.000000
		CHANNELS 3 Zrotation Yrotation Xrotation
		JOINT RightUpLeg
		{
			OFFSET -1.800000 -1.400000 0.085000
			CHANNELS 3 Zrotation Yrotation Xrotation
			JOINT RightLeg
			{
				OFFSET -2.215000 -6.000000 0.000000
				CHANNELS 3 Zrotation Yrotation Xrotation
				JOINT RightFoot
				{
					OFFSET -2.500000 -6.900000 0.000000
					CHANNELS 3 Zrotation Yrotation Xrotation
					JOINT RightToeBase
					{
						OFFSET -0.200000 -0.500000 1.950000
						CHANNELS 3 Zrotation Yrotation Xrotation
						End Site
						{
							OFFSET 0.000000 0.000000 0.000000
						}
					}
				}
			}
		}
	}
	JOINT LowerBack
	{
		OFFSET 0.000000 0.000000 0.000000
		CHANNELS 3 Zrotation Yrotation Xrotation
		JOINT Spine
		{
			OFFSET -0.087000 1.940000 -0.288900
			CHANNELS 3 Zrotation Yrotation Xrotation
			JOINT Spine1
			{
				OFFSET 0.000000 1.950000 0.060000
				CHANNELS 3 Zrotation Yrotation Xrotation
				JOINT Neck
				{
					OFFSET 0.000000 0.000000 0.000000
					CHANNELS 3 Zrotation Yrotation Xrotation
					JOINT Neck1
					{
						OFFSET 0.000000 1.600000 0.340000
						CHANNELS 3 Zrotation Yrotation Xrotation
						JOINT Head
						{
							OFFSET 0.000000 1.667000 -0.240000
							CHANNELS 3 Zrotation Yrotation Xrotation
							End Site
							{
								OFFSET 0.000000 0.000000 0.000000
							}
						}
					}
				}
				JOINT LeftShoulder
				{
					OFFSET 0.000000 0.000000 0.000000
					CHANNELS 3 Zrotation Yrotation Xrotation
					JOINT LeftArm
					{
						OFFSET 2.700000 1.550000 -0.730000
						CHANNELS 3 Zrotation Yrotation Xrotation
						JOINT LeftForeArm
						{
							OFFSET 5.450000 0.000000 0.000000
							CHANNELS 3 Zrotation Yrotation Xrotation
							JOINT LeftHand
							{
								OFFSET 3.450000 0.000000 0.000000
								CHANNELS 3 Zrotation Yrotation Xrotation
								JOINT LeftHandIndex1
								{
									OFFSET 0.750000 0.000000 0.000000
									CHANNELS 3 Zrotation Yrotation Xrotation
									End Site
									{
										OFFSET 0.000000 0.000000 0.000000
									}
								}
							}
						}
					}
				}
				JOINT RightShoulder
				{
					OFFSET 0.000000 0.000000 0.000000
					CHANNELS 3 Zrotation Yrotation Xrotation
					JOINT RightArm
					{
						OFFSET -2.700000 1.550000 -0.730000
						CHANNELS 3 Zrotation Yrotation Xrotation
						JOINT RightForeArm
						{
							OFFSET -5.450000 0.000000 0.000000
							CHANNELS 3 Zrotation Yrotation Xrotation
							JOINT RightHand
							{
								OFFSET -3.450000 0.000000 0.000000
								CHANNELS 3 Zrotation Yrotation Xrotation
								JOINT RightHandIndex1
								{
									OFFSET -0.750000 0.000000 0.000000
									CHANNELS 3 Zrotation Yrotation Xrotation
									End Site
									{
										OFFSET 0.000000 0.000000 0.000000
									}
								}
							}
						}
					}
				}
			}
		}
	}
}
MOTION
Frames: 14
Frame Time: 0.016667
-1.356560 16.688510 -5.051610 -2.325031 -4.299463 -1.144161 -15.376213 9.554058 6.916266 35.158668 0.215317 -30.640972 -54.260141 18.952374 14.159734 0.971974 11.197204 0.837609 0.353590 -0.149080 0.267590 18.605733 -8.569010 2.367325 -24.353231 3.577948 -12.675964 31.331101 -15.408678 22.101325 -1.076180 -7.110052 1.973716 -0.075200 0.331830 0.217220 -4.003936 -1.210632 -9.662944 13.551905 -1.961726 17.444633 -12.517683 1.661528 4.552510 3.592762 -5.819338 -12.115367 -15.663837 6.021486 43.286676 0.720540 -0.417890 -14.450700 -18.150889 -11.460847 3.839875 -37.928544 -4.959262 -0.009363 -20.781083 0.137421 -2.044438 -3.765286 2.589429 0.925470 0.000600 0.042990 0.246340 10.390208 16.414200 8.850287 40.357466 3.445836 -7.813980 70.710936 36.017416 16.685349 2.006975 -1.547319 -0.352580 0.442200 0.107700 -0.276830 
-1.376910 16.628040 -5.046050 -2.594171 -5.023201 -0.794132 -15.384154 9.341123 6.974229 36.262897 0.974067 -30.702854 -55.592189 19.248897 13.527735 1.050805 11.264512 0.830004 0.381030 -0.099150 0.268210 18.651572 -8.405858 2.475730 -25.393672 3.945725 -13.611749 33.431944 -16.151038 22.312351 -1.140621 -7.394131 1.870822 -0.055720 0.328210 0.238110 -4.089213 -1.061261 -9.700955 14.481248 -1.923708 16.761539 -12.880336 1.687924 4.501132 3.747582 -5.764796 -11.551553 -14.929013 5.732630 41.916782 -0.121180 -0.111510 -13.609650 -18.887992 -10.467550 3.453290 -38.826169 -4.283197 -0.182846 -19.330795 1.167380 -2.094447 -3.786039 2.635368 0.867440 0.023500 0.037400 0.263800 10.675103 15.353439 8.397329 40.996869 3.488023 -7.540922 73.586891 36.386534 17.950500 2.012029 -1.642522 -0.311050 0.401590 0.078090 -0.254530 
-1.421210 16.522830 -5.040020 -2.812536 -6.201079 -0.351115 -15.407446 9.057476 7.059073 38.059101 2.311923 -30.870270 -57.850751 20.249606 13.113536 1.155876 11.453431 0.798126 0.399800 -0.068540 0.246660 18.712459 -8.101260 2.680782 -27.472587 4.586964 -15.122725 37.251064 -17.620080 22.806245 -1.259973 -7.886173 1.703536 -0.037460 0.340330 0.240400 -4.198266 -0.973351 -9.783585 15.756391 -2.208756 16.280933 -13.242912 1.459610 3.674551 3.720109 -6.694633 -11.154396 -16.090687 6.394478 39.724752 -0.054470 0.110490 -12.625950 -19.758915 -8.838309 3.109149 -40.659489 -2.103353 -0.900989 -17.168013 2.168209 -2.154812 -3.788093 2.679130 0.825200 0.035190 0.015180 0.290870 11.503189 14.473853 8.012889 42.254025 3.446520 -7.271342 77.606514 37.308915 20.178496 2.020468 -1.742304 -0.293590 0.375590 0.056590 -0.231280 
-1.468350 16.404940 -5.039920 -2.942406 -7.462835 -0.462410 -15.425686 8.876240 7.084183 39.649321 3.676835 -30.984303 -59.745882 22.329462 14.159670 1.275417 11.730674 0.740066 0.429170 -0.040550 0.259400 18.753369 -7.839706 2.937940 -29.896917 5.240944 -16.311729 41.506378 -19.251285 23.159461 -1.411110 -8.377926 1.545177 -0.028000 0.329650 0.246440 -4.283180 -0.915358 -9.918425 16.994285 -2.419155 16.764373 -13.469115 1.456032 2.179870 3.811299 -7.209339 -10.892166 -16.699685 6.885875 38.891632 -0.562100 0.540780 -11.876210 -21.870349 -7.665447 2.804559 -41.070954 0.658526 -1.794047 -16.190578 2.683779 -2.259080 -3.756492 2.708443 0.809950 0.032860 0.015890 0.314370 13.311689 13.873270 7.736879 42.772617 2.819924 -7.042459 81.834469 37.071605 21.806874 2.035642 -1.824987 -0.276710 0.347130 0.021670 -0.222650 
-1.518300 16.275440 -5.046070 -2.913007 -8.640102 -0.791457 -15.451404 8.796622 7.074288 41.039023 4.969073 -31.360794 -61.042652 25.312194 16.430738 1.413185 12.041736 0.662897 0.459730 -0.008090 0.277100 18.773551 -7.612624 3.178620 -32.339547 5.778789 -17.392167 45.457554 -20.946652 23.604390 -1.553331 -8.807719 1.411301 -0.023360 0.298810 0.248440 -4.320568 -0.956866 -10.050697 18.047545 -2.685632 17.665136 -13.422037 1.442088 0.458651 3.867738 -7.732544 -10.771938 -17.621411 7.367520 38.711121 -1.063590 0.762490 -11.039280 -24.304693 -6.723565 2.462141 -41.041389 3.157015 -2.406096 -15.532093 3.804559 -2.396866 -3.712945 2.742561 0.790090 0.017910 0.023910 0.329060 15.542810 13.528927 7.674287 42.976020 1.694927 -6.867816 87.162110 37.252065 24.296782 2.061165 -1.910593 -0.246600 0.307060 -0.016050 -0.213490 
-1.554970 16.140360 -5.049940 -3.110965 -9.384186 -1.426948 -15.461115 8.795784 7.027066 42.106481 6.154406 -31.928088 -60.846503 28.964459 20.046365 1.503630 12.392006 0.566103 0.458140 -0.020960 0.305610 18.787738 -7.446371 3.400881 -34.539093 6.362403 -17.810039 49.605270 -22.509776 23.576220 -1.684612 -9.124856 1.325432 -0.034450 0.260080 0.221890 -4.355442 -1.003668 -10.181791 19.631882 -3.079573 19.165414 -13.688940 1.526631 -1.655227 4.163001 -7.820557 -10.699296 -17.801671 7.764633 39.754072 -1.825440 1.228120 -10.974260 -27.159976 -5.654507 2.027114 -40.826648 6.331696 -3.228077 -14.678221 4.337668 -2.482813 -3.657447 2.690475 0.816730 -0.011520 0.037850 0.317300 17.650327 12.785713 7.703751 43.930390 -0.056345 -7.047556 91.768149 37.714681 26.889029 2.082655 -1.925967 -0.259410 0.303780 -0.031920 -0.234480 
-1.576580 15.994280 -5.054990 -3.360428 -10.301759 -1.847358 -15.509185 8.848380 6.999811 42.839466 7.393750 -32.950149 -59.241259 32.956201 24.607747 1.591053 12.756655 0.458496 0.416860 -0.082760 0.331190 18.760869 -7.248001 3.630868 -36.719786 7.127017 -18.553279 53.914674 -23.973746 23.285215 -1.805950 -9.357817 1.262767 -0.089770 0.215320 0.222020 -4.275593 -1.155641 -10.357830 20.980981 -3.049487 20.832050 -13.623550 2.099133 -3.966674 4.888547 -7.286384 -10.799548 -16.604196 7.404203 41.345163 -4.097320 2.114820 -11.395760 -29.405325 -4.458733 1.654196 -41.959170 10.243256 -4.713324 -12.544328 2.756392 -2.273749 -3.625281 2.612285 0.856310 -0.034390 0.067170 0.278180 18.327954 11.902402 7.881168 46.098539 -1.912536 -7.468012 95.593240 37.622648 28.702927 2.104505 -1.905621 -0.264060 0.286590 -0.017400 -0.265080 
-1.593700 15.858460 -5.061750 -3.354539 -11.247492 -2.003434 -15.591796 8.943596 7.009404 43.190559 8.364063 -34.106448 -57.201130 36.557600 29.127448 1.673488 13.083234 0.372093 0.380190 -0.144660 0.343150 18.703263 -7.008197 3.802471 -38.677586 7.749909 -19.487712 57.365709 -25.174458 23.045759 -1.894376 -9.502467 1.238946 -0.141700 0.186050 0.211960 -4.102934 -1.518192 -10.514715 21.861903 -2.867730 22.368497 -12.640742 2.807624 -6.073024 5.280498 -7.383400 -11.322361 -17.084489 7.538247 42.698383 -5.485030 2.466750 -11.643670 -30.850253 -3.797079 1.448594 -44.096821 13.324134 -6.081141 -11.164445 1.717841 -2.173199 -3.595663 2.543764 0.902290 -0.063300 0.089410 0.255780 19.109674 12.062077 8.548934 48.225220 -4.134878 -8.085045 99.639796 37.538153 30.560474 2.122638 -1.876327 -0.277110 0.286690 -0.005540 -0.286720 
-1.598300 15.732780 -5.078980 -3.333826 -11.795635 -1.818576 -15.686075 8.979614 7.090410 43.067808 8.986517 -36.200071 -53.742186 39.943323 34.644097 1.747403 13.469463 0.252717 0.343660 -0.200360 0.340350 18.644605 -6.735554 3.947018 -40.603190 8.236214 -20.684289 60.668569 -26.246329 22.614958 -1.967060 -9.603031 1.219362 -0.189110 0.153910 0.210070 -3.905863 -1.901002 -10.683038 22.647726 -2.672315 23.801257 -11.591645 3.600414 -7.888804 5.716953 -7.551672 -11.953979 -17.608732 7.712169 43.700223 -6.528520 2.686130 -12.205980 -31.779460 -3.518621 1.388228 -46.932815 15.862560 -7.653600 -9.547287 -0.049277 -2.042148 -3.573286 2.503650 0.945980 -0.093440 0.109940 0.227930 19.364905 12.780799 9.258979 50.306946 -5.610410 -8.746139 101.429362 37.350961 31.135934 2.136577 -1.836697 -0.282430 0.275510 0.018860 -0.306260 
-1.593350 15.630770 -5.098660 -2.979689 -12.218622 -2.118087 -15.792233 9.071138 7.161137 42.385060 9.063809 -37.841516 -49.644710 42.591374 40.388119 1.813828 13.892666 0.097333 0.360620 -0.208060 0.386170 18.559424 -6.463203 4.074276 -42.614567 8.706236 -21.490064 63.759517 -27.058518 22.037950 -2.056863 -9.655648 1.189010 -0.215560 0.072950 0.230130 -3.642692 -2.396422 -10.853998 23.002161 -2.329613 25.921004 -10.451547 4.544604 -9.695618 6.225662 -7.620832 -12.622887 -18.261309 7.977157 45.681716 -7.666570 2.700060 -14.198910 -33.068286 -3.541984 1.249778 -49.374862 17.892086 -9.057530 -7.862061 -1.652400 -1.967464 -3.518605 2.491198 1.018150 -0.155470 0.169110 0.196790 19.929017 13.766762 9.945020 51.355792 -6.924703 -9.051220 104.712444 35.939880 31.302062 2.141321 -1.823490 -0.262170 0.242900 0.023340 -0.338070 
-1.575970 15.536150 -5.128920 -2.562157 -12.299714 -2.302373 -15.892114 9.081890 7.261886 41.173632 8.902830 -40.058948 -44.505169 45.136218 47.270576 1.929859 14.490018 -0.088773 0.381250 -0.193310 0.432870 18.488081 -6.180417 4.202642 -44.326818 9.180585 -22.957711 66.775987 -27.897798 21.625760 -2.140675 -9.708394 1.169200 -0.224430 0.000250 0.237010 -3.402509 -2.783718 -11.022755 23.275003 -1.827532 27.786236 -9.142100 5.571457 -10.538170 6.801315 -7.628589 -13.084556 -18.410148 7.861652 47.033711 -9.010920 2.503610 -16.499300 -34.030590 -3.754387 1.019154 -52.272800 18.555599 -10.230339 -6.100157 -3.060547 -1.874205 -3.476009 2.469946 1.068110 -0.208090 0.223390 0.171600 19.960220 14.977912 10.556067 52.792937 -7.103122 -9.441399 107.445556 36.835620 33.644461 2.164319 -1.799124 -0.243920 0.227960 0.016230 -0.360650 
-1.555500 15.466780 -5.166950 -1.871509 -12.063368 -2.449951 -16.017916 9.154425 7.351018 39.354374 8.154370 -42.636918 -38.746406 46.178924 53.983784 2.029231 15.209151 -0.300735 0.381920 -0.199290 0.450890 18.381871 -5.876395 4.305456 -46.303946 9.403311 -23.587304 69.513791 -27.944363 20.417216 -2.186550 -9.656700 1.193410 -0.233740 -0.040970 0.225520 -3.059246 -3.365364 -11.181191 22.869359 -1.170776 29.909303 -7.162672 6.636546 -11.531661 7.340727 -8.111873 -13.632037 -19.696105 8.257217 48.307068 -9.974450 2.052770 -19.016010 -34.711972 -3.558553 0.667729 -55.146873 19.146696 -11.575058 -5.399441 -4.866980 -1.921822 -3.433976 2.413690 1.132970 -0.254700 0.262100 0.154020 19.970995 16.246185 11.304285 52.962229 -7.680557 -10.081649 108.185478 37.956733 35.086030 2.170544 -1.728995 -0.256120 0.253440 0.028260 -0.381860 
-1.539130 15.434820 -5.227430 -0.848787 -11.865586 -3.239099 -16.167234 9.412797 7.295009 36.814222 7.076310 -44.474301 -32.752206 45.731522 60.048829 2.083984 15.914757 -0.515184 0.387870 -0.206830 0.481820 18.224184 -5.587618 4.406901 -48.135557 9.981062 -23.407184 71.341394 -27.161432 19.170976 -2.225812 -9.525529 1.234453 -0.241900 -0.089420 0.201570 -2.595109 -4.176665 -11.296382 21.558153 -0.291266 33.314640 -4.904883 7.915607 -12.398602 7.922183 -8.529908 -14.505969 -21.437714 8.807134 50.619363 -10.693030 1.170020 -23.486080 -36.208540 -4.202578 0.585368 -56.824947 19.666662 -12.662774 -5.219107 -6.987872 -2.030295 -3.345708 2.330900 1.243750 -0.330120 0.319560 0.135060 20.979288 18.345075 12.392564 52.359533 -8.544383 -11.585598 106.988450 42.047108 38.239911 2.195194 -1.577179 -0.288560 0.314340 0.044350 -0.412170 
-1.530910 15.438510 -5.303680 0.311818 -11.921486 -4.318002 -16.284356 9.787300 7.053830 33.663820 5.843508 -45.561863 -26.680981 43.843501 65.157678 2.155835 16.345221 -0.692973 0.487530 -0.072210 0.529060 18.072360 -5.379730 4.533325 -49.497556 10.833628 -23.163114 72.210974 -26.002880 18.375227 -2.286591 -9.379605 1.257292 -0.205390 -0.217680 0.189130 -2.180023 -4.963534 -11.315069 20.423366 0.743109 36.850996 -2.914884 9.281052 -12.396330 8.503354 -9.243727 -16.194392 -24.769820 10.472075 54.465730 -8.861620 -0.600020 -28.162390 -37.954114 -6.283131 1.083452 -58.139212 19.698161 -13.534350 -4.921157 -8.909170 -2.057676 -3.164669 2.372800 1.312850 -0.459500 0.426560 0.138880 22.517526 22.148494 14.149519 51.676679 -9.728050 -13.933825 105.923878 47.257936 41.704121 2.265746 -1.471804 -0.219720 0.304410 -0.009740 -0.399860 
